<svg version="1.1" id="Layer_1" xmlns="http://www.w3.org/2000/svg" xmlns:xlink="http://www.w3.org/1999/xlink" x="0px" y="0px" width="100%" viewBox="0 0 512 512" enable-background="new 0 0 512 512" xml:space="preserve">

<path fill="#FFDD76" opacity="1.000000" stroke="none" d="
M96.986465,272.857391 
	C97.939209,242.347916 107.623444,214.657959 124.884682,189.731873 
	C148.658264,155.401642 181.447601,133.958923 221.855789,124.091515 
	C238.702209,119.977737 256.050751,119.786736 273.063629,121.275604 
	C301.226105,123.740227 327.235229,133.550400 350.247101,150.112610 
	C368.427216,163.197235 383.428894,179.452225 395.020264,198.794525 
	C405.703857,216.622086 412.088470,235.965256 415.891022,256.225006 
	C416.854523,261.358551 416.662476,266.709015 416.542053,272.458130 
	C310.547638,272.969116 205.012589,272.982147 99.477554,272.988831 
	C98.647194,272.988892 97.816826,272.903107 96.986465,272.857391 
z" data-index="1" style="visibility: visible; fill: rgb(252, 119, 1); opacity: 1;"></path>
<path fill="#FBBE00" opacity="1.000000" stroke="none" d="
M256.277283,309.704468 
	C259.329346,314.190155 263.659637,318.128204 264.572449,322.742340 
	C267.778900,338.949829 258.919037,353.442749 240.890747,353.087738 
	C232.155716,352.915741 223.397049,353.573608 214.659454,354.047180 
	C209.760468,354.312714 210.051910,357.995605 209.878342,361.604858 
	C209.694321,365.431549 210.984390,367.593994 214.874619,368.000763 
	C217.954559,368.322754 221.031921,368.953583 224.110992,368.957184 
	C275.608643,369.017181 327.106750,369.099548 378.603912,368.925171 
	C390.450653,368.885071 400.920349,379.053894 401.196899,391.594757 
	C401.465118,403.758057 395.145233,413.739197 384.246002,416.258423 
	C382.678131,416.620850 381.058380,416.969055 379.462494,416.969727 
	C297.799438,417.004059 216.136353,417.006104 134.473282,416.992828 
	C123.042633,416.990997 113.188828,406.958496 112.947006,395.535309 
	C112.812157,389.165070 113.437271,383.252655 117.461449,377.890045 
	C121.672623,372.278351 127.223495,369.540863 133.957367,369.042297 
	C141.021881,368.519257 148.116974,368.420197 155.187592,367.963959 
	C159.491486,367.686279 160.161240,364.861053 160.120041,361.042328 
	C160.079880,357.318542 159.694977,354.452515 155.277161,354.001343 
	C152.196457,353.686707 149.120422,353.054108 146.040787,353.044373 
	C121.042130,352.965393 96.042999,352.954041 71.044273,353.019745 
	C58.914742,353.051636 49.069866,343.069641 48.939804,331.106506 
	C48.872326,324.900421 49.553089,319.172729 53.417709,313.947632 
	C57.596256,308.298065 63.158653,305.113068 69.880333,305.094116 
	C127.877312,304.930481 185.875381,304.910919 243.871475,305.192139 
	C247.917236,305.211761 251.949692,307.977875 256.277283,309.704468 
z" data-index="2" style="visibility: visible; fill: rgb(252, 119, 1); opacity: 1;"></path>
<path fill="#FBBE00" opacity="1.000000" stroke="none" d="
M349.779205,470.564636 
	C343.878021,479.069458 335.849823,481.173737 326.219391,481.119598 
	C279.239929,480.855377 232.254944,480.694519 185.279221,481.190735 
	C171.624069,481.334961 160.352356,470.719177 160.769562,456.796265 
	C161.080978,446.404144 166.867477,436.292236 177.853958,433.657776 
	C179.421677,433.281860 181.062576,433.027802 182.669800,433.026733 
	C232.149734,432.994049 281.629730,433.038818 331.109589,432.971130 
	C342.655548,432.955353 353.535614,442.908875 352.877411,455.082764 
	C352.602478,460.168457 350.974915,465.181030 349.779205,470.564636 
z" data-index="3" style="opacity: 1; visibility: visible; fill: rgb(252, 119, 1);"></path>
<path fill="#FBBE00" opacity="1.000000" stroke="none" d="
M330.000000,353.000000 
	C321.506744,353.000000 313.478882,352.524963 305.527832,353.104126 
	C291.308716,354.139801 280.296570,342.605621 280.786835,328.606903 
	C281.163422,317.853760 287.014191,308.402161 297.986908,305.555298 
	C299.704254,305.109741 301.553406,305.022888 303.341736,305.021790 
	C349.136383,304.994141 394.934662,305.320007 440.723480,304.802979 
	C454.277283,304.649963 465.600433,315.322021 465.272766,329.192444 
	C465.051483,338.561188 459.019775,349.993317 448.200623,352.296112 
	C446.464172,352.665680 444.671875,352.969147 442.905060,352.970947 
	C405.436737,353.009308 367.968353,353.000000 330.000000,353.000000 
z" data-index="4" style="visibility: visible; fill: rgb(252, 119, 1); opacity: 1;"></path>
<path fill="#FBBE00" opacity="1.000000" stroke="none" d="
M96.520363,272.919983 
	C97.816826,272.903107 98.647194,272.988892 99.477554,272.988831 
	C205.012589,272.982147 310.547638,272.969116 416.548096,272.906860 
	C435.500031,272.904877 453.986481,272.949921 472.472961,273.001404 
	C478.976959,273.019501 480.987762,274.901123 480.999878,280.948486 
	C481.012207,287.103058 479.069092,288.995300 472.598938,288.995575 
	C328.848785,289.001312 185.098618,289.001434 41.348469,288.995209 
	C34.934032,288.994934 32.976971,287.062531 33.000156,280.895691 
	C33.022629,274.919067 35.083881,273.008026 41.586025,273.002930 
	C59.742096,272.988617 77.898178,272.988342 96.520363,272.919983 
z" data-index="5" style="visibility: visible; fill: rgb(255, 98, 66); opacity: 1;"></path>
<path fill="#FFDD76" opacity="1.000000" stroke="none" d="
M98.743713,110.245850 
	C109.942291,121.445663 120.907082,132.377884 131.826401,143.355362 
	C135.669922,147.219360 136.313156,152.900604 133.409454,156.109299 
	C129.960373,159.920670 124.066910,160.437454 120.321877,156.749771 
	C107.156830,143.786285 94.094223,130.716827 81.135414,117.547173 
	C77.802162,114.159698 78.192909,108.148880 81.418190,105.101952 
	C84.490822,102.199211 90.112579,102.129845 93.525436,105.086075 
	C95.281242,106.606979 96.842728,108.352211 98.743713,110.245850 
z" data-index="6" style="visibility: visible; fill: rgb(252, 119, 1); opacity: 1;"></path>
<path fill="#FFDD76" opacity="1.000000" stroke="none" d="
M404.744995,120.744919 
	C409.827362,115.673096 414.631042,110.822083 419.501068,106.038605 
	C423.466278,102.143875 429.204803,101.813736 432.663788,105.184219 
	C436.181519,108.611938 436.028839,114.371918 432.085632,118.343628 
	C419.533325,130.986725 406.937653,143.587173 394.294861,156.139755 
	C390.271729,160.134201 384.770599,160.271149 381.228638,156.710602 
	C377.730499,153.194138 377.935608,147.690155 381.923645,143.635147 
	C389.395752,136.037567 396.965729,128.536270 404.744995,120.744919 
z" data-index="7" style="visibility: visible; fill: rgb(252, 119, 1); opacity: 1;"></path>
<path fill="#FFDD76" opacity="1.000000" stroke="none" d="
M265.044800,97.096748 
	C264.625793,103.579224 262.704773,105.257889 256.000793,104.999748 
	C250.805664,104.799706 249.007431,102.663506 249.003891,96.585808 
	C248.993149,78.127892 248.991394,59.669949 249.005112,41.212036 
	C249.009354,35.491936 250.852753,33.268589 255.705765,33.000408 
	C262.379242,32.631622 264.174957,34.004684 265.012329,40.980927 
	C265.028351,60.266468 265.036591,78.681610 265.044800,97.096748 
z" data-index="8" style="visibility: visible; fill: rgb(252, 119, 1); opacity: 1;"></path>
<path fill="#FFDD76" opacity="1.000000" stroke="none" d="
M300.026062,86.194946 
	C301.446136,80.983910 302.744202,76.161209 304.268219,71.410995 
	C306.194519,65.407036 310.110382,62.829041 315.074921,64.052284 
	C319.486481,65.139282 322.217224,69.753960 320.903015,75.431305 
	C318.509399,85.771904 315.725281,96.027603 312.866119,106.252174 
	C311.760040,110.207565 305.774170,112.984276 302.175964,111.667717 
	C297.487915,109.952385 295.020172,104.957977 296.378845,100.127396 
	C297.641388,95.638618 298.799988,91.120613 300.026062,86.194946 
z" data-index="9" style="visibility: visible; fill: rgb(252, 119, 1); opacity: 1;"></path>
<path fill="#FFDD76" opacity="1.000000" stroke="none" d="
M447.974854,221.000092 
	C454.197906,219.663574 459.969788,218.180695 465.809540,217.047226 
	C470.567719,216.123703 472.771362,219.406830 473.899323,223.201035 
	C475.112976,227.283478 472.688538,231.718323 468.584290,232.936966 
	C457.947083,236.095306 447.268005,239.130692 436.527679,241.914413 
	C432.264069,243.019470 426.987701,239.197891 426.038544,234.970444 
	C425.143463,230.983688 428.717804,226.082047 433.119110,224.972412 
	C437.956390,223.752884 442.743866,222.335800 447.974854,221.000092 
z" data-index="10" style="visibility: visible; fill: rgb(255, 98, 66); opacity: 1; stroke-width: 2px; stroke: rgb(255, 98, 66);"></path>
<path fill="#FFDD76" opacity="1.000000" stroke="none" d="
M194.249176,80.578461 
	C193.697464,77.461060 193.325455,74.727798 193.005264,71.988480 
	C192.445908,67.202599 195.574295,64.981415 199.398666,64.130661 
	C203.679413,63.178383 207.550598,65.075134 208.872665,69.264183 
	C212.204010,79.819786 215.111649,90.515785 217.926346,101.224571 
	C219.088943,105.647766 215.131027,111.150154 210.736221,111.973358 
	C206.638733,112.740868 202.187790,109.266258 200.969757,104.641884 
	C198.884476,96.724907 196.633560,88.851555 194.249176,80.578461 
z" data-index="11" style="visibility: visible; fill: rgb(255, 98, 66); opacity: 1; stroke-width: 2px; stroke: rgb(255, 98, 66);"></path>
<path fill="#FFDD76" opacity="1.000000" stroke="none" d="
M47.302261,217.000137 
	C55.892910,218.874664 64.055710,220.721024 72.201691,222.638809 
	C75.172935,223.338318 78.095085,224.243805 81.055855,224.991058 
	C85.241219,226.047379 88.651527,230.765762 87.988106,234.664017 
	C87.237938,239.071884 81.752655,243.078079 77.297440,241.914078 
	C66.564819,239.110001 55.850517,236.192886 45.270580,232.870026 
	C41.439850,231.666901 39.134583,228.439621 40.036011,224.016937 
	C40.792480,220.305450 42.351826,217.155350 47.302261,217.000137 
z" data-index="12" style="visibility: visible; fill: rgb(255, 98, 66); opacity: 1; stroke-width: 2px; stroke: rgb(255, 98, 66);"></path>
<path fill="#FFDD76" opacity="1.000000" stroke="none" d="
M372.986816,96.515427 
	C367.581360,106.481766 362.279968,116.085564 356.750641,125.556290 
	C354.124664,130.054138 348.476379,131.177414 344.340851,128.791733 
	C340.116577,126.354874 340.236420,119.582237 342.274628,116.124168 
	C346.940338,108.208183 351.484283,100.218147 355.944519,92.184242 
	C358.240417,88.048813 360.997375,84.600082 366.264862,85.746674 
	C372.430054,87.088684 373.000946,88.258652 372.986816,96.515427 
z" data-index="13" style="visibility: visible; fill: rgb(255, 98, 66); opacity: 1;"></path>
<path fill="#FFDD76" opacity="1.000000" stroke="none" d="
M425.633575,193.752136 
	C422.492157,194.973190 419.741852,196.253403 416.850586,196.938568 
	C412.294922,198.018188 409.533569,195.296417 408.271973,191.437698 
	C406.872101,187.156006 408.813324,183.484970 412.459900,181.269623 
	C421.007446,176.076843 429.680206,171.076736 438.448273,166.264740 
	C444.899902,162.724045 450.766907,164.837875 451.900848,171.501907 
	C452.341980,174.094315 450.810669,178.356552 448.741669,179.800842 
	C441.485962,184.865753 433.605011,189.035065 425.633575,193.752136 
z" data-index="14" style="visibility: visible; fill: rgb(255, 98, 66); opacity: 1;"></path>
<path fill="#FFDD76" opacity="1.000000" stroke="none" d="
M156.734558,90.231964 
	C162.102386,99.279030 167.213455,108.048630 172.295273,116.835152 
	C174.322357,120.340004 172.933655,126.564224 169.700500,128.707077 
	C165.869583,131.246155 160.193069,130.282135 157.618591,126.003830 
	C152.131866,116.885948 146.867737,107.622955 141.849442,98.239174 
	C139.428833,93.712837 141.003159,88.545021 144.606873,86.803551 
	C149.423233,84.476089 153.807251,85.643410 156.734558,90.231964 
z" data-index="15" style="visibility: visible; fill: rgb(252, 119, 1); opacity: 1;"></path>
<path fill="#FFDD76" opacity="1.000000" stroke="none" d="
M62.024025,170.116760 
	C64.863762,164.821014 69.201118,163.171539 74.369957,165.926498 
	C83.770119,170.936722 93.025116,176.241913 102.136215,181.761505 
	C106.158684,184.198364 107.084251,189.163696 105.014175,192.967819 
	C103.018066,196.635986 97.209641,198.871719 93.431656,196.765823 
	C83.724304,191.354858 74.076721,185.804489 64.714066,179.826202 
	C61.759346,177.939560 60.493614,174.323349 62.024025,170.116760 
z" data-index="16" style="visibility: visible; fill: rgb(255, 98, 66); opacity: 1;"></path>
<path fill="#FFFF80" opacity="1.000000" stroke="none" d="
M265.427368,96.877380 
	C265.036591,78.681610 265.028351,60.266468 265.032349,41.377129 
	C265.361603,41.578819 265.955597,42.254879 265.955200,42.930573 
	C265.944214,60.839745 265.871857,78.748878 265.427368,96.877380 
z" data-index="17" style="opacity: 1; visibility: visible; fill: rgb(252, 119, 1);"></path>
</svg>